<?xml version="1.0" encoding="UTF-8"?>
<svg version="1.1" xmlns="http://www.w3.org/2000/svg" width="512" height="512">
<path d="M0 0 C1.01803711 0.19335938 2.03607422 0.38671875 3.08496094 0.5859375 C63.66364931 12.49221292 122.43526962 46.50778963 159 97 C159.48130371 97.65291016 159.96260742 98.30582031 160.45849609 98.97851562 C177.9035356 122.68630752 191.82509092 148.63721331 200 177 C200.39759521 178.35593262 200.39759521 178.35593262 200.80322266 179.73925781 C207.65834998 203.43262736 211.22813436 227.46055987 211.25 252.125 C211.25101212 253.16563599 211.25101212 253.16563599 211.25204468 254.22729492 C211.23105428 267.9703155 210.1663781 281.41687505 208 295 C207.77449463 296.44270264 207.77449463 296.44270264 207.54443359 297.91455078 C197.61481841 358.53366571 163.51691596 416.24947832 115 454 C113.56140625 455.16402344 113.56140625 455.16402344 112.09375 456.3515625 C78.15736734 483.34641235 37.49756836 499.5817754 -5 507 C-6.58180054 507.28254639 -6.58180054 507.28254639 -8.19555664 507.57080078 C-20.35242285 509.47725909 -32.53424215 509.39701979 -44.8125 509.375 C-45.94861725 509.37445618 -47.0847345 509.37391235 -48.25527954 509.37335205 C-64.85896456 509.33674878 -80.76659334 508.77381778 -97 505 C-98.00337402 504.78037598 -99.00674805 504.56075195 -100.04052734 504.33447266 C-141.55848487 495.17524175 -180.46421808 476.59411257 -212.42602539 448.38525391 C-213.56756925 447.38058199 -214.71613537 446.383871 -215.86889648 445.39208984 C-227.20258926 435.60734887 -237.95459176 424.94989712 -247 413 C-247.62285889 412.19175781 -247.62285889 412.19175781 -248.25830078 411.3671875 C-275.88727926 375.42836314 -293.30370507 333.79180938 -300 289 C-300.1757959 287.82598633 -300.3515918 286.65197266 -300.53271484 285.44238281 C-301.19585341 280.00764415 -301.20088265 274.57042638 -301.23828125 269.1015625 C-301.246353 267.95376312 -301.25442474 266.80596375 -301.26274109 265.62338257 C-301.27653681 263.19099411 -301.28727902 260.75858667 -301.29516602 258.32617188 C-301.30657136 255.89089088 -301.32683592 253.45563253 -301.35668945 251.02050781 C-301.62449564 229.11126846 -299.78294898 207.69111694 -293.6875 186.5625 C-293.38610107 185.48943604 -293.08470215 184.41637207 -292.77416992 183.31079102 C-281.8862389 145.34327512 -262.79873011 110.50719223 -236.1328125 81.35546875 C-234.30504283 79.33688796 -232.55653806 77.27771647 -230.8125 75.1875 C-195.09165627 34.36367859 -141.4357745 9.84347417 -89 0 C-87.71971924 -0.24991699 -87.71971924 -0.24991699 -86.41357422 -0.50488281 C-58.9377261 -5.6656196 -27.41387749 -5.2855258 0 0 Z " fill="#000101" transform="translate(301,3)"/>
<path d="M0 0 C1.01803711 0.19335938 2.03607422 0.38671875 3.08496094 0.5859375 C63.66364931 12.49221292 122.43526962 46.50778963 159 97 C159.48130371 97.65291016 159.96260742 98.30582031 160.45849609 98.97851562 C177.9035356 122.68630752 191.82509092 148.63721331 200 177 C200.39759521 178.35593262 200.39759521 178.35593262 200.80322266 179.73925781 C207.65834998 203.43262736 211.22813436 227.46055987 211.25 252.125 C211.25101212 253.16563599 211.25101212 253.16563599 211.25204468 254.22729492 C211.23105428 267.9703155 210.1663781 281.41687505 208 295 C207.77449463 296.44270264 207.77449463 296.44270264 207.54443359 297.91455078 C197.61481841 358.53366571 163.51691596 416.24947832 115 454 C113.56140625 455.16402344 113.56140625 455.16402344 112.09375 456.3515625 C78.15736734 483.34641235 37.49756836 499.5817754 -5 507 C-6.58180054 507.28254639 -6.58180054 507.28254639 -8.19555664 507.57080078 C-20.35242285 509.47725909 -32.53424215 509.39701979 -44.8125 509.375 C-45.94861725 509.37445618 -47.0847345 509.37391235 -48.25527954 509.37335205 C-64.85896456 509.33674878 -80.76659334 508.77381778 -97 505 C-98.00337402 504.78037598 -99.00674805 504.56075195 -100.04052734 504.33447266 C-141.55848487 495.17524175 -180.46421808 476.59411257 -212.42602539 448.38525391 C-213.56756925 447.38058199 -214.71613537 446.383871 -215.86889648 445.39208984 C-227.20258926 435.60734887 -237.95459176 424.94989712 -247 413 C-247.62285889 412.19175781 -247.62285889 412.19175781 -248.25830078 411.3671875 C-275.88727926 375.42836314 -293.30370507 333.79180938 -300 289 C-300.1757959 287.82598633 -300.3515918 286.65197266 -300.53271484 285.44238281 C-301.19585341 280.00764415 -301.20088265 274.57042638 -301.23828125 269.1015625 C-301.246353 267.95376312 -301.25442474 266.80596375 -301.26274109 265.62338257 C-301.27653681 263.19099411 -301.28727902 260.75858667 -301.29516602 258.32617188 C-301.30657136 255.89089088 -301.32683592 253.45563253 -301.35668945 251.02050781 C-301.62449564 229.11126846 -299.78294898 207.69111694 -293.6875 186.5625 C-293.38610107 185.48943604 -293.08470215 184.41637207 -292.77416992 183.31079102 C-281.8862389 145.34327512 -262.79873011 110.50719223 -236.1328125 81.35546875 C-234.30504283 79.33688796 -232.55653806 77.27771647 -230.8125 75.1875 C-195.09165627 34.36367859 -141.4357745 9.84347417 -89 0 C-87.71971924 -0.24991699 -87.71971924 -0.24991699 -86.41357422 -0.50488281 C-58.9377261 -5.6656196 -27.41387749 -5.2855258 0 0 Z M-197.625 110.6484375 C-237.37896889 153.0781543 -254.9924147 208.52864294 -253.19091797 265.87792969 C-250.99770145 320.07832584 -223.87821902 371.40182632 -184.75 408.0625 C-174.07730817 417.52028887 -162.44706649 426.03592977 -150 433 C-148.78812012 433.680625 -148.78812012 433.680625 -147.55175781 434.375 C-125.58480824 446.57797813 -103.64157129 454.15862591 -79 459 C-78.2668457 459.14695312 -77.53369141 459.29390625 -76.77832031 459.4453125 C-49.15313269 464.70991997 -16.91517904 461.96913879 10 454 C10.89364258 453.73590332 11.78728516 453.47180664 12.70800781 453.19970703 C43.6868336 443.84399821 71.06543916 428.99478345 94.81640625 406.97265625 C96.35387319 405.58371027 97.94646485 404.25460507 99.57421875 402.97265625 C101.73693599 401.21392484 103.46066434 399.49870647 105.25 397.375 C107.13640753 395.15593566 109.02619734 392.97228836 111.02734375 390.85546875 C136.43596343 363.88465545 153.25735588 327.21617183 160 291 C160.19078125 289.99324219 160.3815625 288.98648438 160.578125 287.94921875 C162.65589552 276.26918019 163.20845529 264.72745637 163.1875 252.875 C163.18656342 252.18825195 163.18562683 251.50150391 163.18466187 250.79394531 C163.15394067 240.38687713 162.89147029 230.25339357 161 220 C160.84934082 219.15663086 160.69868164 218.31326172 160.54345703 217.44433594 C152.08682098 171.44868434 128.44734697 126.10577561 92 96 C90.69675781 94.86498047 90.69675781 94.86498047 89.3671875 93.70703125 C72.03148936 78.79833085 52.13872862 67.58137526 31 59 C30.24831543 58.69320312 29.49663086 58.38640625 28.72216797 58.0703125 C18.07110557 53.81625045 7.28279833 50.97611022 -3.9375 48.625 C-5.73151245 48.24867432 -5.73151245 48.24867432 -7.56176758 47.86474609 C-77.92325066 33.89080267 -148.09123454 60.67240628 -197.625 110.6484375 Z " fill="#3B3C3C" transform="translate(301,3)"/>
<path d="M0 0 C1.01803711 0.19335938 2.03607422 0.38671875 3.08496094 0.5859375 C63.66364931 12.49221292 122.43526962 46.50778963 159 97 C159.48130371 97.65291016 159.96260742 98.30582031 160.45849609 98.97851562 C170.95860767 113.24815715 179.69833314 128.0006183 187.4375 143.9375 C188.20030273 145.50081055 188.20030273 145.50081055 188.97851562 147.09570312 C191.92086939 153.27662076 194.26900616 159.37415554 196 166 C189.65568464 168.30702377 183.24125239 169.93967893 176.66894531 171.44165039 C170.48919848 172.86060804 164.37991572 174.47700238 158.26953125 176.16796875 C155.18840429 176.95205482 152.14247178 177.52791395 149 178 C148.59910156 177.11441406 148.19820313 176.22882813 147.78515625 175.31640625 C137.53824282 152.88248075 125.49383112 132.457982 109 114 C108.20722656 113.08605469 107.41445313 112.17210938 106.59765625 111.23046875 C102.04334421 106.0377745 97.30520879 101.41160093 92 97 C91.12859375 96.24074219 90.2571875 95.48148437 89.359375 94.69921875 C72.02275314 79.79621359 52.13630783 68.58039253 31 60 C30.24831543 59.69320312 29.49663086 59.38640625 28.72216797 59.0703125 C18.07110557 54.81625045 7.28279833 51.97611022 -3.9375 49.625 C-5.1335083 49.37411621 -6.3295166 49.12323242 -7.56176758 48.86474609 C-58.83741345 38.68129141 -115.21354316 50.20405918 -158.71875 79.0546875 C-207.34894287 112.4223182 -239.14299698 160.92400658 -250 219 C-252.12831066 230.55590038 -252.17246303 242.16022992 -252.1875 253.875 C-252.18867828 254.5831485 -252.18985657 255.291297 -252.19107056 256.02090454 C-252.18943084 264.72239941 -251.89274662 273.33963865 -251 282 C-257.32057832 284.23907709 -263.65170488 285.95506118 -270.1875 287.4375 C-277.66745434 289.16837122 -285.03406258 291.07148421 -292.3828125 293.30078125 C-295 294 -295 294 -298 294 C-300.21601239 279.93762911 -300.37239014 265.93254987 -300.37060547 251.71850586 C-300.37497212 247.83727904 -300.41138863 243.95719829 -300.44921875 240.07617188 C-300.51822627 224.94126648 -299.48067373 210.74106882 -296 196 C-295.71753418 194.77756592 -295.43506836 193.55513184 -295.14404297 192.2956543 C-294.40862027 189.32032717 -293.60667359 186.37996529 -292.75 183.4375 C-292.4511792 182.39924072 -292.1523584 181.36098145 -291.84448242 180.29125977 C-281.03272412 143.59740165 -262.42471034 109.29597731 -236.1796875 81.33203125 C-234.29254723 79.31299408 -232.51702498 77.24806733 -230.75 75.125 C-195.10927095 34.30927048 -141.35900416 9.8290625 -89 0 C-87.71971924 -0.24991699 -87.71971924 -0.24991699 -86.41357422 -0.50488281 C-58.9377261 -5.6656196 -27.41387749 -5.2855258 0 0 Z " fill="#767777" transform="translate(301,3)"/>
<path d="M0 0 C1.16786979 0.00157627 1.16786979 0.00157627 2.35933292 0.00318438 C3.5968711 -0.00678734 3.5968711 -0.00678734 4.85941005 -0.0169605 C7.63992438 -0.03673575 10.42027817 -0.04204293 13.20085514 -0.04733747 C15.18814889 -0.05822677 17.1754385 -0.06989784 19.16272342 -0.08229536 C24.57411786 -0.11286929 29.98546967 -0.12983604 35.39693296 -0.14251155 C38.7770238 -0.15058679 42.15710227 -0.16076712 45.53718555 -0.17152685 C56.11019074 -0.20426818 66.68316607 -0.22815902 77.2562151 -0.24034071 C89.4652614 -0.25458973 101.67372906 -0.2984355 113.88258362 -0.3678422 C123.31537549 -0.41961909 132.74800284 -0.44451375 142.18093467 -0.44916284 C147.8163715 -0.45256233 153.45122395 -0.46744108 159.08650959 -0.51044363 C164.39071015 -0.55020818 169.69391883 -0.55659374 174.99822414 -0.53754324 C176.94286546 -0.5362774 178.88755755 -0.54694561 180.83205593 -0.57055753 C197.35862646 -0.75974721 197.35862646 -0.75974721 202.4278754 3.59693438 C203.47981445 4.79487673 204.49953126 6.02288737 205.46599185 7.29079729 C206.22194644 7.99596483 206.97790103 8.70113238 207.75676334 9.42766863 C208.36076969 10.01881457 208.96477603 10.6099605 209.5870856 11.21901995 C210.28720767 11.90307909 210.98732975 12.58713824 211.70866764 13.29192644 C214.81797702 16.35605746 217.92473653 19.42264613 221.02312076 22.49782854 C222.66073534 24.11874947 224.30371434 25.73426746 225.9518317 27.34450823 C228.34368989 29.68184438 230.7188992 32.03498712 233.09099185 34.39235979 C233.83147769 35.11017626 234.57196353 35.82799273 235.33488834 36.56756121 C236.00979312 37.24531603 236.68469791 37.92307085 237.38005435 38.6213637 C237.97769596 39.21091845 238.57533756 39.8004732 239.19108951 40.40789324 C240.85662268 42.8677202 240.85246451 44.37811585 240.46599185 47.29079729 C237.54612307 50.21066608 234.50026032 49.59029017 230.58610904 49.59186846 C229.76249472 49.5999274 228.9388804 49.60798634 228.09030807 49.6162895 C225.3144774 49.6407695 222.53878508 49.65074776 219.76286685 49.66067034 C217.77881707 49.67483217 215.79477255 49.68974763 213.81073368 49.70536333 C207.27919756 49.75268594 200.74764793 49.77830537 194.21599185 49.80251604 C191.96821927 49.81192207 189.72044705 49.82141648 187.4726752 49.83099848 C178.12050487 49.86951076 168.76834367 49.90272055 159.41611087 49.92136961 C146.01266748 49.94816025 132.61019108 50.00564862 119.20709789 50.10713458 C109.78447038 50.17603922 100.36209964 50.21033941 90.93922603 50.21893442 C85.31137357 50.22493486 79.68451488 50.24586961 74.05693424 50.30349833 C68.75747826 50.35694253 63.45963788 50.36737656 58.15997493 50.34535319 C56.21937115 50.34463813 54.27868947 50.35921683 52.33833873 50.39056307 C35.87340159 50.64180104 35.87340159 50.64180104 29.48590457 44.96645647 C28.11084694 43.43876993 26.76775667 41.88140033 25.46599185 40.29079729 C24.12932765 38.98657872 22.77938379 37.695641 21.40910709 36.42678362 C17.95371457 33.05856775 14.52098552 29.66731332 11.09465396 26.26955706 C9.62303544 24.81466334 8.14605124 23.36517872 6.6639899 21.92092425 C4.50115672 19.81271406 2.35511329 17.6886457 0.2120856 15.56032854 C-0.4513435 14.91956881 -1.11477261 14.27880907 -1.79830563 13.61863238 C-4.66600384 10.73749855 -6.34351815 8.89674832 -7.580639 4.96145159 C-7.48957567 -0.25395066 -4.44250644 0.05220826 0 0 Z " fill="#6F8ACF" transform="translate(139.53400814533234,230.7092027068138)"/>
<path d="M0 0 C0.82925885 -0.00226556 1.65851769 -0.00453111 2.5129056 -0.00686532 C5.3074051 -0.01322423 8.10185634 -0.01237476 10.8963623 -0.0115509 C12.89338748 -0.01454118 14.89041208 -0.0179434 16.88743591 -0.02172852 C22.32323191 -0.03058519 27.75901217 -0.0329073 33.19481468 -0.0335443 C37.72548163 -0.03449189 42.25614487 -0.03816838 46.7868104 -0.0417164 C57.47062777 -0.04986698 68.15443671 -0.05230005 78.83825684 -0.05158997 C89.87751472 -0.05098872 100.91672381 -0.06154847 111.95596933 -0.07733363 C121.41923456 -0.09038555 130.88248379 -0.09577487 140.34575796 -0.09513456 C146.00425015 -0.09487891 151.66269899 -0.09776649 157.32118225 -0.10831261 C162.63986977 -0.1179544 167.95847213 -0.11809988 173.27716255 -0.11079597 C175.23396999 -0.10974529 177.19078262 -0.11214143 179.1475811 -0.11815643 C181.80934549 -0.12581128 184.47081095 -0.12127519 187.13256836 -0.11352539 C187.91524094 -0.11866895 188.69791352 -0.12381252 189.50430346 -0.12911195 C194.83801278 -0.09455863 194.83801278 -0.09455863 197.06628418 2.13371277 C196.82509564 6.7919041 195.71136037 9.11247682 192.43615723 12.36320496 C191.6683342 13.13710571 190.90051117 13.91100647 190.10942078 14.70835876 C189.27405289 15.52419434 188.438685 16.34002991 187.57800293 17.18058777 C186.72325882 18.03300049 185.86851471 18.88541321 184.98786926 19.76365662 C183.18042294 21.56136882 181.36696195 23.35305114 179.54797363 25.13908386 C176.76245371 27.87519701 173.99604532 30.62953037 171.2322998 33.38761902 C169.47362442 35.13220834 167.71389374 36.87573461 165.95300293 38.61808777 C165.12370773 39.44202026 164.29441254 40.26595276 163.43998718 41.11485291 C162.66270767 41.87614502 161.88542816 42.63743713 161.08459473 43.42179871 C160.40366257 44.09209106 159.72273041 44.76238342 159.02116394 45.45298767 C154.57348565 49.27691826 150.6491577 49.42069047 144.93002319 49.38768005 C144.10313905 49.39080003 143.2762549 49.39392002 142.42431366 49.39713454 C139.64978761 49.40512062 136.87547989 49.39878856 134.10095215 49.39250183 C132.11348339 49.39521138 130.12601565 49.39877211 128.1385498 49.40312195 C122.73797319 49.41225132 117.33747286 49.40869973 111.93689489 49.40236378 C106.29236994 49.39730805 100.64785162 49.40199391 95.00332642 49.40513611 C85.52576522 49.4087764 76.04823518 49.40397436 66.57067871 49.39445496 C55.60067466 49.38356402 44.6307449 49.38710038 33.66074264 49.39810777 C24.2526342 49.40717136 14.84454817 49.40847066 5.43643677 49.40323043 C-0.187368 49.40010642 -5.81113779 49.3997133 -11.43494034 49.40630341 C-16.71918992 49.41206298 -22.00334326 49.40810554 -27.2875824 49.39651489 C-29.23148819 49.39386112 -31.17540202 49.39464554 -33.11930466 49.39904022 C-35.7634547 49.40446878 -38.40729223 49.39769461 -41.05142212 49.38768005 C-41.82883951 49.3921415 -42.60625691 49.39660294 -43.4072324 49.40119958 C-48.70541529 49.3620133 -48.70541529 49.3620133 -50.93371582 47.13371277 C-51.41491465 43.97007335 -51.27304099 42.60673996 -49.39065552 39.98265076 C-48.66832733 39.26840942 -47.94599915 38.55416809 -47.20178223 37.81828308 C-46.38738678 37.0010376 -45.57299133 36.18379211 -44.73391724 35.34178162 C-43.39809097 34.03995941 -43.39809097 34.03995941 -42.03527832 32.71183777 C-41.12998383 31.81124634 -40.22468933 30.91065491 -39.29196167 29.98277283 C-36.88486409 27.59342575 -34.46726781 25.21576631 -32.04425049 22.84263611 C-30.06693156 20.90073816 -28.10082964 18.94769784 -26.13518715 16.99399185 C-22.07680094 12.96122025 -18.0098197 8.93698552 -13.92443848 4.93156433 C-13.2005191 4.22050537 -12.47659973 3.50944641 -11.73074341 2.77684021 C-8.1349462 -0.51100752 -4.62854721 -0.00915808 0 0 Z " fill="#A058E4" transform="translate(182.9337158203125,304.8662872314453)"/>
<path d="M0 0 C0.82517529 -0.00226556 1.65035059 -0.00453111 2.5005312 -0.00686532 C5.28121123 -0.01322412 8.06184277 -0.01237476 10.8425293 -0.0115509 C12.82970239 -0.01454119 14.8168749 -0.01794341 16.80404663 -0.02172852 C22.21298399 -0.03058513 27.62190555 -0.0329073 33.03084946 -0.0335443 C37.53914845 -0.0344919 42.04744374 -0.03816839 46.55574131 -0.0417164 C57.18682098 -0.04986695 67.81789218 -0.05230005 78.44897461 -0.05158997 C89.43370102 -0.05098872 100.41837839 -0.06154848 111.40309238 -0.07733363 C120.81964888 -0.09038559 130.2361893 -0.09577487 139.65275478 -0.09513456 C145.28330138 -0.09487892 150.91380441 -0.09776642 156.54434204 -0.10831261 C161.83676487 -0.11795447 167.12910212 -0.11809983 172.42152786 -0.11079597 C174.36865996 -0.1097453 176.31579729 -0.11214137 178.26292038 -0.11815643 C180.91154809 -0.12581142 183.5598754 -0.1212751 186.20849609 -0.11352539 C187.37666854 -0.12124074 187.37666854 -0.12124074 188.56844044 -0.12911195 C193.87597665 -0.09455863 193.87597665 -0.09455863 196.10424805 2.13371277 C196.58544688 5.29735219 196.44357322 6.66068557 194.56118774 9.28477478 C193.83885956 9.99901611 193.11653137 10.71325745 192.37231445 11.44914246 C191.55791901 12.26638794 190.74352356 13.08363342 189.90444946 13.92564392 C189.01389862 14.79352539 188.12334778 15.66140686 187.20581055 16.55558777 C186.30051605 17.4561792 185.39522156 18.35677063 184.4624939 19.28465271 C182.05539631 21.67399979 179.63780003 24.05165923 177.21478271 26.42478943 C175.23746379 28.36668738 173.27136187 30.3197277 171.30571938 32.27343369 C167.24733317 36.30620529 163.18035192 40.33044002 159.0949707 44.33586121 C158.37105133 45.04692017 157.64713196 45.75797913 156.90127563 46.49058533 C153.30547842 49.77843306 149.79907944 49.27658362 145.17053223 49.26742554 C144.34127338 49.26969109 143.51201453 49.27195665 142.65762663 49.27429086 C139.86312713 49.28064976 137.06867588 49.27980029 134.27416992 49.27897644 C132.27714474 49.28196672 130.28012014 49.28536894 128.28309631 49.28915405 C122.84730032 49.29801073 117.41152005 49.30033284 111.97571754 49.30096984 C107.4450506 49.30191743 102.91438735 49.30559391 98.38372183 49.30914193 C87.69990446 49.31729252 77.01609551 49.31972558 66.33227539 49.3190155 C55.29301751 49.31841426 44.25380842 49.32897401 33.21456289 49.34475917 C23.75129766 49.35781108 14.28804843 49.3632004 4.82477427 49.36256009 C-0.83371792 49.36230445 -6.49216676 49.36519203 -12.15065002 49.37573814 C-17.46933754 49.38537994 -22.7879399 49.38552542 -28.10663033 49.37822151 C-30.06343776 49.37717083 -32.0202504 49.37956696 -33.97704887 49.38558197 C-36.63881326 49.39323682 -39.30027873 49.38870073 -41.96203613 49.38095093 C-43.13604501 49.38866627 -43.13604501 49.38866627 -44.33377123 49.39653748 C-49.66748056 49.36198417 -49.66748056 49.36198417 -51.89575195 47.13371277 C-51.64858186 42.81051875 -50.06088571 40.80435051 -47.05029297 37.81828308 C-45.8288131 36.59241486 -45.8288131 36.59241486 -44.58265686 35.34178162 C-43.25457253 34.03995941 -43.25457253 34.03995941 -41.8996582 32.71183777 C-40.99577866 31.81124634 -40.09189911 30.91065491 -39.16062927 29.98277283 C-37.24923457 28.08179981 -35.33465733 26.18495163 -33.41308594 24.2943573 C-30.94856642 21.86949602 -28.49501543 19.43391087 -26.04541111 16.99399185 C-23.70867757 14.66722311 -21.36683735 12.34562311 -19.0246582 10.02433777 C-18.14129288 9.14835938 -17.25792755 8.27238098 -16.34779358 7.36985779 C-15.12158546 6.16290253 -15.12158546 6.16290253 -13.87060547 4.93156433 C-13.1497023 4.22050537 -12.42879913 3.50944641 -11.68605042 2.77684021 C-8.10639821 -0.50854761 -4.61417781 -0.00917526 0 0 Z " fill="#3FBCBB" transform="translate(183.895751953125,157.8662872314453)"/>
<path d="M0 0 C17.19544155 17.19544155 16.31003828 65.61115753 16.31274414 88.70904541 C16.24758712 102.27720049 15.13748201 115.59805266 13 129 C12.77449463 130.44270264 12.77449463 130.44270264 12.54443359 131.91455078 C2.61481841 192.53366571 -31.48308404 250.24947832 -80 288 C-80.9590625 288.77601563 -81.918125 289.55203125 -82.90625 290.3515625 C-110.70533262 312.46446913 -148.16314378 333.37970465 -184 337 C-181.1793484 335.1195656 -179.37063584 334.41781317 -176.16015625 333.5546875 C-175.18957275 333.28664307 -174.21898926 333.01859863 -173.21899414 332.74243164 C-171.65652954 332.31305298 -171.65652954 332.31305298 -170.0625 331.875 C-158.68758071 328.64683253 -147.83972627 324.70495185 -137 320 C-135.94087402 319.55068115 -135.94087402 319.55068115 -134.86035156 319.09228516 C-116.58115266 311.27988826 -99.31549665 300.65475359 -84 288 C-83.08734375 287.27683594 -82.1746875 286.55367188 -81.234375 285.80859375 C-29.99220319 244.8880594 4.5419184 183.31135676 12 118 C12.08547089 117.25687057 12.17094177 116.51374115 12.25900269 115.74809265 C12.88118095 109.98314119 13.15998058 104.30024561 13.16796875 98.50390625 C13.17129715 97.63088364 13.17462555 96.75786102 13.17805481 95.85838318 C13.18308135 94.02058431 13.18546447 92.18277644 13.18530273 90.3449707 C13.18747018 87.60026074 13.20561961 84.8559663 13.22460938 82.11132812 C13.29821897 59.33946318 9.61006209 38.49942365 3.7265625 16.5847168 C2.25720569 11.08906818 1.01003373 5.60109614 0 0 Z " fill="#050505" transform="translate(496,169)"/>
<path d="M0 0 C0.66 0.33 1.32 0.66 2 1 C-3.80823269 7.46005841 -9.70465119 13.82124306 -15.8125 20 C-16.3386792 20.53906982 -16.8648584 21.07813965 -17.40698242 21.63354492 C-20.70241409 24.93728135 -24.03543084 27.53473726 -28 30 C-26.64686058 27.01250136 -25.11284688 24.81617902 -22.875 22.42578125 C-22.25512207 21.76199463 -21.63524414 21.09820801 -20.99658203 20.41430664 C-20.00827393 19.37391235 -20.00827393 19.37391235 -19 18.3125 C-17.99428955 17.2460022 -17.99428955 17.2460022 -16.96826172 16.15795898 C-11.87963 10.81032505 -6.61086833 5.80040957 -1 1 C-0.67 0.67 -0.34 0.34 0 0 Z " fill="#404040" transform="translate(88,61)"/>
<path d="M0 0 C3.0916909 2.52956528 3.90931332 5.22454612 5 9 C2 8 2 8 0.8125 6.1875 C0 4 0 4 0 0 Z " fill="#989999" transform="translate(478,129)"/>
<path d="M0 0 C2.31 1.98 4.62 3.96 7 6 C6.34 6.66 5.68 7.32 5 8 C2.5 5.6875 2.5 5.6875 0 3 C0 2.01 0 1.02 0 0 Z " fill="#9E9E9E" transform="translate(426,64)"/>
<path d="M0 0 C0.66 0 1.32 0 2 0 C3.06775224 1.96466413 4.06553465 3.96855359 5 6 C4.67 6.66 4.34 7.32 4 8 C1.10067643 5.60490662 0.49831724 3.68754757 0 0 Z " fill="#949494" transform="translate(485,144)"/>
<path d="M0 0 C3.36720387 1.39332574 4.9859524 2.9789286 7 6 C4 6 4 6 1.8125 4.125 C0 2 0 2 0 0 Z " fill="#878787" transform="translate(432,71)"/>
<path d="M0 0 C1.99097846 2.98646769 2.94124926 5.59687262 4 9 C1 8 1 8 -0.25 5.625 C-1 3 -1 3 0 0 Z " fill="#A2A2A2" transform="translate(490,152)"/>
</svg>
